# xmcd
#
# Track frame offsets:
#	150
#	15291
#	29750
#	41046
#	56241
#	70709
#	87138
#	100250
#	114483
#	125510
#	138021
#	160899
#	173951
#	190525
#	204248
#	219370
#
# Disc length: 3106 seconds
#
# Revision: 0
# Processed by: cddbd v1.5.2PL0 Copyright (c) Steve Scherf et al.
# Submitted via: EasyCDDAExtractor 16.0.6.1
#
DISCID=d30c2010
DTITLE=Συλλογικός δίσκος - Τα μεγάλα τραγούδια-Μ. Χατζιδάκις 1
DYEAR=2010
DGENRE=Ποικίλη
TTITLE0=Μερκούρη Μελίνα - Τα παιδιά του Πειραιά [Μ. Χατζιδάκις]
TTITLE1=Αλεξάνδρα - Έλα πάρε μου τη λύπη [Νίκος Γκάτσος]
TTITLE2=Αρλέτα - Τώρα που πας στην ξενητειά [Νίκος Γκάτσος]
TTITLE3=Μητσιάς Μανώλης - Κεμάλ [Νίκος Γκάτσος]
TTITLE4=Φαραντούρη Μαρία - Με την Ελλάδα καραβοκύρη [Νίκος Γκάτσος]
TTITLE5=Γαλάνη Δήμητρα - Άσπρο περιστέρι [Νίκος Γκάτσος]
TTITLE6=Ζωγράφος Γιώργος - Ο Ιρλανδός και ο Ιουδαίος [Νίκος Γκάτσος]
TTITLE7=Γιαννάτου Σαβίνα - Τα παιδιά κάτω στον κάμπο [Μ. Χατζιδάκις]
TTITLE8=Παππάς Λάκης - Όμορφη πού 'ναι η Κρήτη [Ν. Καζαντζάκης, διασκ. Γερ.Στα
TTITLE8=ύρου]
TTITLE9=Αλεξάνδρα - Στην πύλη τ' Αδριανού [Μιχ. Μπουρμπούλης]
TTITLE10=Λιούγκος Ηλίας - Η προσευχή του ακροβάτη [Αγαθή Δημητρούκα]
TTITLE11=Γιαννάτου Σαβίνα - Dedication [Clifton Nivison]
TTITLE12=Ρωμανός Γιώργος - Γύρνα φτερωτή του μύλου [F. G. Lorca, απ. Ν. Γκάτσο
TTITLE12=ς]
TTITLE13=Ζορμπαλά Μαργαρίτα - Αθανασία [Νίκος Γκάτσος]
TTITLE14=Μούτσιος Γιώργος - Τ' αστέρι του βοριά [Νίκος Γκάτσος]
TTITLE15=Άνευ ερμηνευτού - Προσωπογραφία της μητέρας μου [οργαν., Μ. Χατζιδάκι
TTITLE15=ς]
EXTD=
EXTT0=
EXTT1=
EXTT2=
EXTT3=
EXTT4=
EXTT5=
EXTT6=
EXTT7=
EXTT8=
EXTT9=
EXTT10=
EXTT11=
EXTT12=
EXTT13=
EXTT14=
EXTT15=
PLAYORDER=
